<svg width="0" height="0" class="hidden">
    <symbol id="dollar" viewBox="0 0 24 24" fill="none"
        xmlns="http://www.w3.org/2000/svg">
        <g id="SVGRepo_bgCarrier" stroke-width="0"></g>
        <g id="SVGRepo_tracerCarrier" stroke-linecap="round" stroke-linejoin="round"></g>
        <g id="SVGRepo_iconCarrier">
            <path d="M14.5 9C14.5 9 13.7609 8 11.9999 8C8.49998 8 8.49998 12 11.9999 12C15.4999 12 15.5 16 12 16C10.5 16 9.5 15 9.5 15" stroke="currentColor" style="color:currentColor" stroke-width="0.9600000000000002" stroke-linecap="round" stroke-linejoin="round"></path>
            <path d="M12 7V17" stroke="currentColor" style="color:currentColor" stroke-width="0.9600000000000002" stroke-linecap="round" stroke-linejoin="round"></path>
            <path d="M21 12C21 16.9706 16.9706 21 12 21C7.02944 21 3 16.9706 3 12C3 7.02944 7.02944 3 12 3C16.9706 3 21 7.02944 21 12Z" stroke="currentColor" style="color:currentColor" stroke-width="0.9600000000000002"></path>
        </g>
    </symbol>

    <symbol id="calendar" viewBox="0 0 24.00 24.00" fill="none"
        xmlns="http://www.w3.org/2000/svg">
        <g id="SVGRepo_bgCarrier" stroke-width="0"></g>
        <g id="SVGRepo_tracerCarrier" stroke-linecap="round" stroke-linejoin="round"></g>
        <g id="SVGRepo_iconCarrier">
            <path d="M3 10.312C3 5.93757 3.93757 5 8.312 5H15.688C20.0624 5 21 5.93757 21 10.312V15.688C21 20.0624 20.0624 21 15.688 21H8.312C3.93757 21 3 20.0624 3 15.688V10.312Z" stroke="currentColor" style="color:currentColor" stroke-width="0.9600000000000002"></path>
            <path d="M6 5L6 3" stroke="currentColor" style="color:currentColor" stroke-width="0.9600000000000002" stroke-linecap="round"></path>
            <path d="M18 5L18 3" stroke="currentColor" style="color:currentColor" stroke-width="0.9600000000000002" stroke-linecap="round"></path>
            <path d="M7 9H17" stroke="currentColor" style="color:currentColor" stroke-width="0.9600000000000002" stroke-linecap="round"></path>
        </g>
    </symbol>


    <symbol id="pen" viewBox="0 0 24 24" fill="none"
        xmlns="http://www.w3.org/2000/svg">
        <g id="SVGRepo_bgCarrier" stroke-width="0"></g>
        <g id="SVGRepo_tracerCarrier" stroke-linecap="round" stroke-linejoin="round"></g>
        <g id="SVGRepo_iconCarrier">
            <path d="M13 21H21" stroke="currentColor" style="color:currentColor" stroke-width="0.9600000000000002" stroke-linecap="round" stroke-linejoin="round"></path>
            <path d="M20.0651 7.39423L7.09967 20.4114C6.72438 20.7882 6.21446 21 5.68265 21H4.00383C3.44943 21 3 20.5466 3 19.9922V18.2987C3 17.7696 3.20962 17.2621 3.58297 16.8873L16.5517 3.86681C19.5632 1.34721 22.5747 4.87462 20.0651 7.39423Z" stroke="currentColor" style="color:currentColor" stroke-width="0.9600000000000002" stroke-linecap="round" stroke-linejoin="round"></path>
            <path d="M15.3097 5.30981L18.7274 8.72755" stroke="currentColor" style="color:currentColor" stroke-width="0.9600000000000002" stroke-linecap="round" stroke-linejoin="round"></path>
        </g>
    </symbol>

    <symbol id="search" viewBox="0 0 24 24" fill="none"
        xmlns="http://www.w3.org/2000/svg">
        <g id="SVGRepo_bgCarrier" stroke-width="0"></g>
        <g id="SVGRepo_tracerCarrier" stroke-linecap="round" stroke-linejoin="round"></g>
        <g id="SVGRepo_iconCarrier">
            <path d="M17 17L21 21" stroke="currentColor" style="color:currentColor" stroke-width="0.9600000000000002" stroke-linecap="round" stroke-linejoin="round"></path>
            <path d="M19 11C19 15.4183 15.4183 19 11 19C6.58172 19 3 15.4183 3 11C3 6.58172 6.58172 3 11 3C15.4183 3 19 6.58172 19 11Z" stroke="currentColor" style="color:currentColor" stroke-width="0.9600000000000002"></path>
        </g>
    </symbol>

    <symbol id="filter" viewBox="0 0 24 24" fill="none"
        xmlns="http://www.w3.org/2000/svg">
        <g id="SVGRepo_bgCarrier" stroke-width="0"></g>
        <g id="SVGRepo_tracerCarrier" stroke-linecap="round" stroke-linejoin="round"></g>
        <g id="SVGRepo_iconCarrier">
            <path d="M19 3H5C3.89543 3 3 3.89543 3 5V6.17157C3 6.70201 3.21071 7.21071 3.58579 7.58579L9.41421 13.4142C9.78929 13.7893 10 14.298 10 14.8284V20V20.2857C10 20.9183 10.7649 21.2351 11.2122 20.7878L12 20L13.4142 18.5858C13.7893 18.2107 14 17.702 14 17.1716V14.8284C14 14.298 14.2107 13.7893 14.5858 13.4142L20.4142 7.58579C20.7893 7.21071 21 6.70201 21 6.17157V5C21 3.89543 20.1046 3 19 3Z" stroke="currentColor" style="color:currentColor" stroke-width="0.9600000000000002" stroke-linecap="round" stroke-linejoin="round"></path>
        </g>
    </symbol>


</svg>